# xmcd
#
# Track frame offsets: 
#        150
#        16056
#        33155
#        50541
#        63425
#        84011
#        104965
#        120569
#        139408
#        156932
#        183282
#        201470
#
# Disc length: 2962 seconds
#
# Revision: 0
# Processed by: cddbd v1.5.2PL0 Copyright (c) Steve Scherf et al.
# Submitted via: ExactAudioCopyFreeDBPlugin 1.0
#
DISCID=a20b900c
DTITLE=Ladies of the Canyon - Diamond Heart
DYEAR=2013
DGENRE=Country
TTITLE0=You and All Your Famous Friends
TTITLE1=The Change
TTITLE2=Let's Take The Night
TTITLE3=Black Water
TTITLE4=Diamond Heart
TTITLE5=Two Moons
TTITLE6=Dear John
TTITLE7=People of the Sun
TTITLE8=What We Had
TTITLE9=Babe I'm Gonna Leave You
TTITLE10=She Crossed the River
TTITLE11=Alameda, 1947
EXTD=
EXTT0=
EXTT1=
EXTT2=
EXTT3=
EXTT4=
EXTT5=
EXTT6=
EXTT7=
EXTT8=
EXTT9=
EXTT10=
EXTT11=
PLAYORDER=
